<?xml version="1.0" standalone="no"?><svg xmlns:xlink="http://www.w3.org/1999/xlink" xmlns="http://www.w3.org/2000/svg" viewBox="0 0 1000 600" preserveAspectRatio="xMaxYMax slice"><g transform="scale(0.9569377990430622)"><rect x="0" y="0" width="1045" height="627" fill="#ffffff"/><rect x="139.33333333333334" y="0" width="69.66666666666667" height="69.66666666666667" fill="#ffffff"/><path d="M 139.33 34.83 A 34.83 34.83 0 0 1  174.16000000000003 0 L 139.33 34.83 A 34.83 34.83 0 0 0 174.16000000000003 0" fill="#fbfbfb"/><path d="M 174.17 0 A 34.83 34.83 0 0 1  209 34.83 L 174.17 0 A 34.83 34.83 0 0 0 209 34.83" fill="#fcfcfc"/><path d="M 418 69.67 A 69.67 69.67 0 0 1  487.67 0 L 418 69.67 A 69.67 69.67 0 0 0 487.67 0" fill="#fafafa"/><rect x="627" y="0" width="69.66666666666667" height="69.66666666666667" fill="#ffffff"/><path d="M 627 69.66 A 34.83 34.83 0 0 1  661.83 34.83 L 627 69.66 A 34.83 34.83 0 0 0 661.83 34.83" fill="#fffcf4"/><rect x="696.6666666666667" y="0" width="69.66666666666667" height="69.66666666666667" fill="#ffffff"/><rect x="836" y="0" width="69.66666666666667" height="69.66666666666667" fill="#ffffff"/><path d="M 836 0 A 34.83 34.83 0 0 1  870.83 34.83 L 836 0 A 34.83 34.83 0 0 0 870.83 34.83" fill="#fbfbfb"/><path d="M 836 34.83 A 34.83 34.83 0 0 1  870.83 69.66 L 836 34.83 A 34.83 34.83 0 0 0 870.83 69.66" fill="#fffbf1"/><rect x="0" y="69.66666666666667" width="69.66666666666667" height="69.66666666666667" fill="#ffffff"/><path d="M 0 139.32999999999998 A 34.83 34.83 0 0 1  34.83 104.5 L 0 139.32999999999998 A 34.83 34.83 0 0 0 34.83 104.5" fill="#ffefce"/><path d="M 34.83 104.5 A 34.83 34.83 0 0 1  69.66 139.32999999999998 L 34.83 104.5 A 34.83 34.83 0 0 0 69.66 139.32999999999998" fill="#fbfbfb"/><path d="M 69.67 69.67 A 69.67 69.67 0 0 1  139.34 139.34 L 69.67 69.67 A 69.67 69.67 0 0 0 139.34 139.34" fill="#fff5df"/><rect x="139.33333333333334" y="69.66666666666667" width="69.66666666666667" height="69.66666666666667" fill="#ffffff"/><path d="M 278.67 139.34 A 69.67 69.67 0 0 1  348.34000000000003 69.67 L 278.67 139.34 A 69.67 69.67 0 0 0 348.34000000000003 69.67" fill="#ffffff"/><path d="M 627 69.67 A 69.67 69.67 0 0 1  696.67 139.34 L 627 69.67 A 69.67 69.67 0 0 0 696.67 139.34" fill="#ffffff"/><path d="M 836 139.34 A 69.67 69.67 0 0 1  905.67 69.67 L 836 139.34 A 69.67 69.67 0 0 0 905.67 69.67" fill="#fefefe"/><rect x="905.6666666666667" y="69.66666666666667" width="69.66666666666667" height="69.66666666666667" fill="#ffffff"/><path d="M 940.5 69.67 A 34.83 34.83 0 0 1  975.33 104.5 L 940.5 69.67 A 34.83 34.83 0 0 0 975.33 104.5" fill="#fcfcfc"/><rect x="975.3333333333334" y="69.66666666666667" width="69.66666666666667" height="69.66666666666667" fill="#ffffff"/><path d="M 1010.17 69.67 A 34.83 34.83 0 0 1  1045 104.5 L 1010.17 69.67 A 34.83 34.83 0 0 0 1045 104.5" fill="#ffffff"/><rect x="0" y="139.33333333333334" width="69.66666666666667" height="69.66666666666667" fill="#ffffff"/><path d="M 34.83 174.17 A 34.83 34.83 0 0 1  69.66 209 L 34.83 174.17 A 34.83 34.83 0 0 0 69.66 209" fill="#fcfcfc"/><path d="M 209 209 A 69.67 69.67 0 0 1  278.67 139.33 L 209 209 A 69.67 69.67 0 0 0 278.67 139.33" fill="#fcfcfc"/><path d="M 836 209 A 69.67 69.67 0 0 1  905.67 139.33 L 836 209 A 69.67 69.67 0 0 0 905.67 139.33" fill="#fff3da"/><path d="M 975.33 209 A 69.67 69.67 0 0 1  1045 139.33 L 975.33 209 A 69.67 69.67 0 0 0 1045 139.33" fill="#fdfdfd"/><path d="M 0 278.67 A 69.67 69.67 0 0 1  69.67 209 L 0 278.67 A 69.67 69.67 0 0 0 69.67 209" fill="#fffcf7"/><rect x="278.6666666666667" y="209" width="69.66666666666667" height="69.66666666666667" fill="#ffffff"/><path d="M 348.33 209 A 69.67 69.67 0 0 1  418 278.67 L 348.33 209 A 69.67 69.67 0 0 0 418 278.67" fill="#fff9ec"/><rect x="627" y="209" width="69.66666666666667" height="69.66666666666667" fill="#ffffff"/><path d="M 627 243.82999999999998 A 34.83 34.83 0 0 1  661.83 209 L 627 243.82999999999998 A 34.83 34.83 0 0 0 661.83 209" fill="#fefefe"/><path d="M 661.83 243.83 A 34.83 34.83 0 0 1  696.6600000000001 278.66 L 661.83 243.83 A 34.83 34.83 0 0 0 696.6600000000001 278.66" fill="#fff3db"/><path d="M 905.67 278.67 A 69.67 69.67 0 0 1  975.3399999999999 209 L 905.67 278.67 A 69.67 69.67 0 0 0 975.3399999999999 209" fill="#fdfdfd"/><rect x="975.3333333333334" y="209" width="69.66666666666667" height="69.66666666666667" fill="#ffffff"/><path d="M 1010.17 209 A 34.83 34.83 0 0 1  1045 243.82999999999998 L 1010.17 209 A 34.83 34.83 0 0 0 1045 243.82999999999998" fill="#fffdf9"/><path d="M 975.33 278.66 A 34.83 34.83 0 0 1  1010.1600000000001 243.83 L 975.33 278.66 A 34.83 34.83 0 0 0 1010.1600000000001 243.83" fill="#fffefa"/><path d="M 139.33 348.34000000000003 A 69.67 69.67 0 0 1  209 278.67 L 139.33 348.34000000000003 A 69.67 69.67 0 0 0 209 278.67" fill="#fffefd"/><path d="M 209 278.67 A 69.67 69.67 0 0 1  278.67 348.34000000000003 L 209 278.67 A 69.67 69.67 0 0 0 278.67 348.34000000000003" fill="#ffffff"/><path d="M 487.67 348.34000000000003 A 69.67 69.67 0 0 1  557.34 278.67 L 487.67 348.34000000000003 A 69.67 69.67 0 0 0 557.34 278.67" fill="#ffffff"/><path d="M 557.33 348.34000000000003 A 69.67 69.67 0 0 1  627 278.67 L 557.33 348.34000000000003 A 69.67 69.67 0 0 0 627 278.67" fill="#fff8e8"/><rect x="696.6666666666667" y="278.6666666666667" width="69.66666666666667" height="69.66666666666667" fill="#ffffff"/><path d="M 696.67 313.5 A 34.83 34.83 0 0 1  731.5 348.33 L 696.67 313.5 A 34.83 34.83 0 0 0 731.5 348.33" fill="#fdfdfd"/><rect x="905.6666666666667" y="278.6666666666667" width="69.66666666666667" height="69.66666666666667" fill="#ffffff"/><path d="M 905.67 278.67 A 34.83 34.83 0 0 1  940.5 313.5 L 905.67 278.67 A 34.83 34.83 0 0 0 940.5 313.5" fill="#fefefe"/><rect x="0" y="348.33333333333337" width="69.66666666666667" height="69.66666666666667" fill="#ffffff"/><path d="M 34.83 383.17 A 34.83 34.83 0 0 1  69.66 418 L 34.83 383.17 A 34.83 34.83 0 0 0 69.66 418" fill="#fbfbfb"/><path d="M 348.33 418 A 69.67 69.67 0 0 1  418 348.33 L 348.33 418 A 69.67 69.67 0 0 0 418 348.33" fill="#fdfdfd"/><path d="M 418 348.33 A 69.67 69.67 0 0 1  487.67 418 L 418 348.33 A 69.67 69.67 0 0 0 487.67 418" fill="#fff5df"/><rect x="557.3333333333334" y="348.33333333333337" width="69.66666666666667" height="69.66666666666667" fill="#ffffff"/><path d="M 592.17 348.33 A 34.83 34.83 0 0 1  627 383.15999999999997 L 592.17 348.33 A 34.83 34.83 0 0 0 627 383.15999999999997" fill="#fdfdfd"/><path d="M 557.33 383.17 A 34.83 34.83 0 0 1  592.1600000000001 418 L 557.33 383.17 A 34.83 34.83 0 0 0 592.1600000000001 418" fill="#ffecc3"/><path d="M 592.17 418 A 34.83 34.83 0 0 1  627 383.17 L 592.17 418 A 34.83 34.83 0 0 0 627 383.17" fill="#fafafa"/><path d="M 627 348.33 A 69.67 69.67 0 0 1  696.67 418 L 627 348.33 A 69.67 69.67 0 0 0 696.67 418" fill="#fff4dc"/><path d="M 975.33 348.33 A 69.67 69.67 0 0 1  1045 418 L 975.33 348.33 A 69.67 69.67 0 0 0 1045 418" fill="#fefefe"/><rect x="69.66666666666667" y="418" width="69.66666666666667" height="69.66666666666667" fill="#ffffff"/><path d="M 104.5 418 A 34.83 34.83 0 0 1  139.32999999999998 452.83 L 104.5 418 A 34.83 34.83 0 0 0 139.32999999999998 452.83" fill="#fefefe"/><path d="M 104.5 452.83 A 34.83 34.83 0 0 1  139.32999999999998 487.65999999999997 L 104.5 452.83 A 34.83 34.83 0 0 0 139.32999999999998 487.65999999999997" fill="#fff9ec"/><rect x="139.33333333333334" y="418" width="69.66666666666667" height="69.66666666666667" fill="#ffffff"/><path d="M 174.17 418 A 34.83 34.83 0 0 1  209 452.83 L 174.17 418 A 34.83 34.83 0 0 0 209 452.83" fill="#fefefe"/><path d="M 139.33 487.65999999999997 A 34.83 34.83 0 0 1  174.16000000000003 452.83 L 139.33 487.65999999999997 A 34.83 34.83 0 0 0 174.16000000000003 452.83" fill="#fdfdfd"/><rect x="348.33333333333337" y="418" width="69.66666666666667" height="69.66666666666667" fill="#ffffff"/><path d="M 348.33 487.65999999999997 A 34.83 34.83 0 0 1  383.15999999999997 452.83 L 348.33 487.65999999999997 A 34.83 34.83 0 0 0 383.15999999999997 452.83" fill="#fcfcfc"/><rect x="836" y="418" width="69.66666666666667" height="69.66666666666667" fill="#ffffff"/><path d="M 870.83 418 A 34.83 34.83 0 0 1  905.6600000000001 452.83 L 870.83 418 A 34.83 34.83 0 0 0 905.6600000000001 452.83" fill="#fcfcfc"/><path d="M 836 487.65999999999997 A 34.83 34.83 0 0 1  870.83 452.83 L 836 487.65999999999997 A 34.83 34.83 0 0 0 870.83 452.83" fill="#fffaef"/><path d="M 870.83 487.65999999999997 A 34.83 34.83 0 0 1  905.6600000000001 452.83 L 870.83 487.65999999999997 A 34.83 34.83 0 0 0 905.6600000000001 452.83" fill="#fafafa"/><path d="M 766.33 487.67 A 69.67 69.67 0 0 1  836 557.34 L 766.33 487.67 A 69.67 69.67 0 0 0 836 557.34" fill="#fbfbfb"/><path d="M 836 557.34 A 69.67 69.67 0 0 1  905.67 487.67 L 836 557.34 A 69.67 69.67 0 0 0 905.67 487.67" fill="#fcfcfc"/><rect x="418" y="557.3333333333334" width="69.66666666666667" height="69.66666666666667" fill="#ffffff"/><path d="M 452.83 557.33 A 34.83 34.83 0 0 1  487.65999999999997 592.1600000000001 L 452.83 557.33 A 34.83 34.83 0 0 0 487.65999999999997 592.1600000000001" fill="#fbfbfb"/><rect x="487.6666666666667" y="557.3333333333334" width="69.66666666666667" height="69.66666666666667" fill="#ffffff"/><path d="M 487.67 592.1600000000001 A 34.83 34.83 0 0 1  522.5 557.33 L 487.67 592.1600000000001 A 34.83 34.83 0 0 0 522.5 557.33" fill="#fff8e8"/><rect x="557.3333333333334" y="557.3333333333334" width="69.66666666666667" height="69.66666666666667" fill="#ffffff"/><path d="M 557.33 592.17 A 34.83 34.83 0 0 1  592.1600000000001 627 L 557.33 592.17 A 34.83 34.83 0 0 0 592.1600000000001 627" fill="#ffffff"/><path d="M 592.17 627 A 34.83 34.83 0 0 1  627 592.17 L 592.17 627 A 34.83 34.83 0 0 0 627 592.17" fill="#fdfdfd"/><rect x="696.6666666666667" y="557.3333333333334" width="69.66666666666667" height="69.66666666666667" fill="#ffffff"/><path d="M 731.5 557.33 A 34.83 34.83 0 0 1  766.33 592.1600000000001 L 731.5 557.33 A 34.83 34.83 0 0 0 766.33 592.1600000000001" fill="#fff6e3"/><path d="M 731.5 627 A 34.83 34.83 0 0 1  766.33 592.17 L 731.5 627 A 34.83 34.83 0 0 0 766.33 592.17" fill="#fbfbfb"/></g></svg>